<svg data-name="Layer 1" xmlns="http://www.w3.org/2000/svg" viewBox="0 0 16.49 16.09"><path d="M14.91 0H1.58A1.58 1.58 0 0 0 0 1.58v12.93a1.58 1.58 0 0 0 1.58 1.58h13.33a1.58 1.58 0 0 0 1.58-1.58V1.58A1.58 1.58 0 0 0 14.91 0zM8.25 4.92A3.13 3.13 0 1 1 5.12 8a3.13 3.13 0 0 1 3.13-3.08zm6.35 8.64a.67.67 0 0 1-.67.67H2.56a.67.67 0 0 1-.67-.67V6.88h1.42a5.07 5.07 0 1 0 10 1.12 4.9 4.9 0 0 0-.14-1.17h1.42zm0-9.24a.67.67 0 0 1-.67.67h-1.75a.67.67 0 0 1-.67-.67V2.56a.67.67 0 0 1 .67-.67h1.76a.67.67 0 0 1 .67.67z"/></svg>