<svg data-name="Layer 1" xmlns="http://www.w3.org/2000/svg" viewBox="0 0 16.49 16.47"><path d="M16.48 13a.79.79 0 0 1-.24.7L13.91 16a1.32 1.32 0 0 1-.41.3 1.73 1.73 0 0 1-.5.16h-.33a7.72 7.72 0 0 1-2.89-.67 15.28 15.28 0 0 1-2.43-1.33A18.19 18.19 0 0 1 4.45 12a19.14 19.14 0 0 1-2-2.3 16.51 16.51 0 0 1-1.29-2A11 11 0 0 1 .4 6a8.88 8.88 0 0 1-.33-1.31A4.3 4.3 0 0 1 0 3.82v-.35A1.72 1.72 0 0 1 .18 3a1.33 1.33 0 0 1 .3-.41L2.8.24A.77.77 0 0 1 3.35 0a.65.65 0 0 1 .4.13 1.19 1.19 0 0 1 .3.32L5.92 4a.84.84 0 0 1 .08.61 1.09 1.09 0 0 1-.3.56L4.85 6a.3.3 0 0 0-.06.11.43.43 0 0 0 0 .13 3.15 3.15 0 0 0 .31.84 7.73 7.73 0 0 0 .65 1A11.19 11.19 0 0 0 7 9.51a11.65 11.65 0 0 0 1.4 1.25 8.12 8.12 0 0 0 1 .65 2.73 2.73 0 0 0 .63.25h.33a.29.29 0 0 0 .11-.06l1-1a1.06 1.06 0 0 1 .73-.28.91.91 0 0 1 .47.1l3.37 2a.87.87 0 0 1 .44.58zm0 0"/></svg>