<svg id="Layer_1" xmlns="http://www.w3.org/2000/svg" viewBox="0 0 63.9 58.3"><style>.st0{fill:#231f20}</style><path class="st0" d="M62.6 13.7c-1.2-.4-2.5 0-3 1.2l-1.2 2.9C54 7.1 43.5 0 31.7 0 18.2 0 6.5 9.2 3.6 22.3c-.3 1.2.4 2.4 1.6 2.7 1.2.3 2.4-.4 2.7-1.6 2.5-11.1 12.2-19 23.8-19 10 0 18.7 5.9 22.5 14.8l-2.5-1.1c-1.2-.4-2.5 0-3 1.2-.4 1.2 0 2.5 1.2 3l7.7 3.3c.3.1.6.1.9.1.3 0 .6 0 .9-.1.6-.1.9-.6 1.2-1.2l3.3-7.7c.3-1.2-.2-2.5-1.3-3zm-4 19.6c-1.2-.3-2.4.4-2.7 1.6C53.4 46 43.6 53.8 32.1 53.8c-10.1 0-18.8-6-22.5-14.9l2.7 1.1c1.2.4 2.5 0 3-1.2.4-1.2 0-2.5-1.2-3l-7.7-3.3c-1.2-.4-2.5 0-3 1.2L.1 41.4c-.4 1.2 0 2.5 1.2 3 .3.1.6.1.9.1.9 0 1.8-.6 2.1-1.5l1.1-2.7C9.8 51 20.2 58 32 58c13.6 0 25.1-9.2 28.1-22.3.4-1-.3-2.1-1.5-2.4z"/></svg>