<svg width="75.9" height="195" viewBox="0 0 75.9 195" xmlns="http://www.w3.org/2000/svg" xmlns:xlink="http://www.w3.org/1999/xlink"><svg data-name="Layer 1" viewBox="-6 -6 34.26 31.24" width="34.26" height="31.24" id="checkbox-off"><path class="acls-1" d="M20.57 15.24a4 4 0 0 1-4 4h-10a4 4 0 0 1-4-4v-10a4 4 0 0 1 4-4h10a4 4 0 0 1 4 4zm-2-10a2 2 0 0 0-2-2h-10a2 2 0 0 0-2 2v10a2 2 0 0 0 2 2h10a2 2 0 0 0 2-2z"/></svg><svg id="checkbox-on" data-name="Layer 1" viewBox="-6 -6 34.26 31.24" width="34.26" height="31.24" y="32"><defs><style>.bcls-1{fill:#1c222b}.bcls-2{fill:#13afc8;stroke:#13afc8;stroke-miterlimit:10}</style></defs><path class="bcls-1" d="M20.57 15.24a4 4 0 0 1-4 4h-10a4 4 0 0 1-4-4v-10a4 4 0 0 1 4-4h10a4 4 0 0 1 4 4zm-2-10a2 2 0 0 0-2-2h-10a2 2 0 0 0-2 2v10a2 2 0 0 0 2 2h10a2 2 0 0 0 2-2z"/><path class="bcls-2" d="M17.89 1.33l-11.3 11.3-3.08-3.08A2 2 0 0 0 .66 12.4l4.5 4.5a2 2 0 0 0 2.84 0L20.74 4.17a2 2 0 1 0-2.85-2.85zm0 0"/></svg><svg id="loading" viewBox="-6 -6 75.9 70.3" width="75.9" height="70.3" y="64"><style>.cst0{fill:#231f20}</style><path class="cst0" d="M62.6 13.7c-1.2-.4-2.5 0-3 1.2l-1.2 2.9C54 7.1 43.5 0 31.7 0 18.2 0 6.5 9.2 3.6 22.3c-.3 1.2.4 2.4 1.6 2.7 1.2.3 2.4-.4 2.7-1.6 2.5-11.1 12.2-19 23.8-19 10 0 18.7 5.9 22.5 14.8l-2.5-1.1c-1.2-.4-2.5 0-3 1.2-.4 1.2 0 2.5 1.2 3l7.7 3.3c.3.1.6.1.9.1.3 0 .6 0 .9-.1.6-.1.9-.6 1.2-1.2l3.3-7.7c.3-1.2-.2-2.5-1.3-3zm-4 19.6c-1.2-.3-2.4.4-2.7 1.6C53.4 46 43.6 53.8 32.1 53.8c-10.1 0-18.8-6-22.5-14.9l2.7 1.1c1.2.4 2.5 0 3-1.2.4-1.2 0-2.5-1.2-3l-7.7-3.3c-1.2-.4-2.5 0-3 1.2L.1 41.4c-.4 1.2 0 2.5 1.2 3 .3.1.6.1.9.1.9 0 1.8-.6 2.1-1.5l1.1-2.7C9.8 51 20.2 58 32 58c13.6 0 25.1-9.2 28.1-22.3.4-1-.3-2.1-1.5-2.4z"/></svg><svg id="radio-off" data-name="Layer 1" viewBox="-6 -6 29.97 29.97" width="29.97" height="29.97" y="135"><defs><style>.dcls-1{fill:#1c222b}</style></defs><path class="dcls-1" d="M9 18a9 9 0 1 1 9-9 9 9 0 0 1-9 9zM9 2a7 7 0 1 0 7 7 7 7 0 0 0-7-7z"/></svg><svg id="radio-on" data-name="Layer 1" viewBox="-6 -6 29.97 29.97" width="29.97" height="29.97" y="165"><defs><style>.ecls-1{fill:#1c222b}.ecls-2{fill:#13afc8}</style></defs><path class="ecls-1" d="M9 18a9 9 0 1 1 9-9 9 9 0 0 1-9 9zM9 2a7 7 0 1 0 7 7 7 7 0 0 0-7-7z"/><circle class="ecls-2" cx="8.98" cy="8.98" r="4.57"/></svg></svg>